<?xml version="1.0" standalone="no"?>
<!DOCTYPE svg PUBLIC "-//W3C//DTD SVG 20010904//EN"
 "http://www.w3.org/TR/2001/REC-SVG-20010904/DTD/svg10.dtd">
<svg version="1.0" xmlns="http://www.w3.org/2000/svg"
 width="512.000000pt" height="512.000000pt" viewBox="0 0 512.000000 512.000000"
 preserveAspectRatio="xMidYMid meet">
<metadata>
Created by potrace 1.14, written by Peter Selinger 2001-2017
</metadata>
<g transform="translate(0.000000,512.000000) scale(0.100000,-0.100000)"
fill="#000000" stroke="none">
<path d="M924 5105 c-114 -36 -203 -123 -243 -239 -25 -74 -9 -239 34 -357 29
-78 94 -205 125 -244 16 -21 30 -40 30 -42 0 -2 -34 -55 -75 -118 -66 -97
-195 -338 -195 -362 0 -4 -6 -19 -13 -33 -7 -14 -24 -59 -37 -100 -13 -41 -29
-94 -36 -116 -7 -23 -23 -93 -34 -155 -12 -63 -28 -123 -36 -134 -45 -63 -84
-127 -84 -135 0 -6 -4 -18 -10 -28 -42 -75 -48 -269 -12 -383 50 -152 174
-286 327 -352 53 -23 168 -46 209 -42 18 1 37 0 42 -4 5 -3 23 -35 39 -70 40
-86 120 -221 178 -301 26 -35 47 -67 47 -70 0 -4 -17 -15 -38 -24 -53 -24
-162 -140 -194 -206 -53 -110 -57 -145 -61 -555 -2 -315 -6 -390 -20 -441 -9
-34 -21 -93 -27 -130 -6 -38 -13 -80 -16 -94 -3 -14 -8 -93 -11 -176 l-6 -150
28 -22 28 -22 1697 0 1697 0 27 21 c27 21 27 23 25 128 -2 97 -7 168 -24 290
-3 24 -15 83 -27 130 -23 94 -26 155 -31 611 -3 248 -6 292 -22 335 -44 118
-124 220 -215 272 -25 15 -46 28 -48 29 -2 1 29 47 67 102 39 55 99 155 134
222 l63 123 59 3 c33 2 69 5 80 8 62 13 86 21 140 48 328 160 425 569 206 863
-17 22 -32 54 -35 70 -3 17 -8 46 -11 65 -23 140 -100 375 -176 535 -90 190
-238 401 -396 562 -106 108 -137 126 -177 100 -22 -15 -26 -15 -47 5 -13 11
-39 32 -56 45 -28 21 -33 31 -31 64 2 49 -7 58 -107 118 -201 121 -456 223
-645 258 -14 2 -43 8 -65 13 -22 5 -67 12 -100 15 -33 4 -69 9 -80 12 -11 2
-150 6 -310 8 -571 8 -909 22 -1235 50 -144 13 -256 13 -296 0z"/>
</g>
</svg>
